HIERARCHY
ROOT Hips
{
  OFFSET -29.1822 61.6766 36.359
  CHANNELS 6 Xposition Yposition Zposition Zrotation Xrotation Yrotation
  JOINT RightUpLeg
  {
    OFFSET -8.9458 -8.66707 0.101652
    CHANNELS 3 Zrotation Xrotation Yrotation
    JOINT RightLeg
    {
      OFFSET 0 -44.4227 1.3727
      CHANNELS 3 Zrotation Xrotation Yrotation
      JOINT RightFoot
      {
        OFFSET 0.253549 -42.0924 -1.46059
        CHANNELS 3 Zrotation Xrotation Yrotation
        JOINT RightToes
        {
          OFFSET 0.04 -4.41509 8.4991
          CHANNELS 3 Zrotation Xrotation Yrotation
          End Site
          {
            OFFSET -0.08 -0.137448 9.77979
          }
        }
      }
    }
  }
  JOINT Spine
  {
    OFFSET 0 11.8905 0
    CHANNELS 3 Zrotation Xrotation Yrotation
    JOINT Spine1
    {
      OFFSET 0 25.6574 0.127663
      CHANNELS 3 Zrotation Xrotation Yrotation
      JOINT HEad
      {
        OFFSET 0 8.73416 0.011341
        CHANNELS 3 Zrotation Xrotation Yrotation
        End Site
        {
          OFFSET -0.29 12.7742 2.51395
        }
      }
      JOINT LeftShoulder1
      {
        OFFSET 8.99 -0.362252 -0.22
        CHANNELS 3 Zrotation Xrotation Yrotation
        JOINT LeftArm
        {
          OFFSET 10.2827 -0.00338 0.322123
          CHANNELS 3 Zrotation Xrotation Yrotation
          JOINT LeftForeArm
          {
            OFFSET 32.7669 0.099144 -1.42434
            CHANNELS 3 Zrotation Xrotation Yrotation
            JOINT LeftHand
            {
              OFFSET 27.5643 0.085362 1.02216
              CHANNELS 3 Zrotation Xrotation Yrotation
              End Site
              {
                OFFSET 16.7443 -0.6 1.50291
              }
            }
          }
        }
      }
      JOINT RightShoulder
      {
        OFFSET -8.99 -0.362252 -0.22
        CHANNELS 3 Zrotation Xrotation Yrotation
        JOINT RightArm
        {
          OFFSET -10.2827 -0.00338 0.322123
          CHANNELS 3 Zrotation Xrotation Yrotation
          JOINT RightForeArm
          {
            OFFSET -32.8971 0.099144 -1.42434
            CHANNELS 3 Zrotation Xrotation Yrotation
            JOINT RightHand
            {
              OFFSET -27.4921 0.085362 1.02216
              CHANNELS 3 Zrotation Xrotation Yrotation
              End Site
              {
                OFFSET -16.6312 -0.6 1.50291
              }
            }
          }
        }
      }
    }
  }
  JOINT LeftUpLeg
  {
    OFFSET 8.9458 -8.66707 0.101652
    CHANNELS 3 Zrotation Xrotation Yrotation
    JOINT LeftLeg
    {
      OFFSET 0 -44.4227 1.3727
      CHANNELS 3 Zrotation Xrotation Yrotation
      JOINT LeftFoot
      {
        OFFSET -0.253549 -42.0924 -1.46059
        CHANNELS 3 Zrotation Xrotation Yrotation
        JOINT LeftToes
        {
          OFFSET -0.04 -4.41509 8.4991
          CHANNELS 3 Zrotation Xrotation Yrotation
          End Site
          {
            OFFSET 0.08 -0.047448 9.77979
          }
        }
      }
    }
  }
}
MOTION
Frames:	11
Frame Time:	0.0166667
0.27327 109.999 -0.217308 2.90532 7.45439 159.854 -1.64583 4.61686 -10.8776 2.40944 15.7097 -21.514 2.95457 -9.70532 2.8075 0.0462048 0.000533403 0.662642 -0.436345 -1.51281 -1.22157 -0.905311 -3.01037 -2.45632 -0.0903866 20.2107 12.9257 0 0 -0 -3.89199 -42.5517 -10.8866 -2.8334 27.8078 -7.19238 -1.35497 21.4049 5.42045 -1.95588e-008 -1.64207e-006 -1.94768e-006 -2.51786 -31.6332 -3.17946 0.644995 28.8902 -1.27704 1.12289 18.9384 -1.29839 -0.586015 2.20874 -7.64208 4.3704 16.8062 -16.8565 -5.14799 -10.6756 0.56073 2.13393e-008 1.56021e-007 -4.87132e-009 
0.295685 110.001 -0.217735 2.8925 7.46037 159.893 -1.64991 4.63899 -10.8743 2.41801 15.6925 -21.5333 2.95516 -9.7106 2.85572 0.0462048 0.000533403 0.662642 -0.434638 -1.51465 -1.22233 -0.901957 -3.01408 -2.45782 -0.100007 20.2164 12.9258 -7.95139e-016 1.59028e-015 3.18055e-015 -3.84345 -42.5278 -10.8738 -2.86075 27.8044 -7.15905 -1.41151 21.4093 5.44579 -1.95588e-008 -1.64207e-006 -1.94768e-006 -2.51935 -31.6159 -3.15772 0.655403 28.8603 -1.31047 1.13657 18.9415 -1.29835 -0.594961 2.21329 -7.68538 4.36997 16.7996 -16.8635 -5.13876 -10.6714 0.576428 2.13393e-008 1.56021e-007 -4.87132e-009 
0.313104 110.003 -0.218218 2.87992 7.4694 159.932 -1.64835 4.6586 -10.8614 2.42197 15.6767 -21.5611 2.95212 -9.71653 2.83443 0.0462048 0.000533403 0.662642 -0.433742 -1.51491 -1.22284 -0.900235 -3.01614 -2.45715 -0.102636 20.2321 12.92 -0 -1.59028e-015 -0 -3.81063 -42.5115 -10.8705 -2.8796 27.8144 -7.11756 -1.46754 21.4174 5.47354 -1.95588e-008 -1.64207e-006 -1.94768e-006 -2.52936 -31.5848 -3.14191 0.673828 28.8097 -1.3459 1.15319 18.9382 -1.29837 -0.607034 2.22498 -7.72575 4.36778 16.7952 -16.8638 -5.12542 -10.6681 0.572583 2.13393e-008 1.56021e-007 -4.87131e-009 
0.336265 110.005 -0.21908 2.86643 7.48108 159.972 -1.645 4.68001 -10.849 2.42378 15.6649 -21.5882 2.96028 -9.72198 2.8606 0.0462048 0.000533403 0.662642 -0.433185 -1.51471 -1.22325 -0.898875 -3.01779 -2.45544 -0.0966603 20.2434 12.9019 -0 -1.59028e-015 -0 -3.78016 -42.5225 -10.8756 -2.90016 27.8581 -7.08071 -1.49198 21.4338 5.49402 -1.95588e-008 -1.64207e-006 -1.94768e-006 -2.53866 -31.5597 -3.13843 0.68911 28.7648 -1.37694 1.17263 18.9357 -1.30385 -0.623528 2.24204 -7.76493 4.36392 16.7946 -16.8562 -5.10901 -10.6666 0.562264 2.13393e-008 1.56021e-007 -4.87132e-009 
0.354187 110.007 -0.219002 2.84806 7.49347 160.017 -1.64365 4.69482 -10.8464 2.42485 15.6559 -21.6128 2.95793 -9.72799 2.81571 0.0462048 0.000533403 0.662642 -0.432822 -1.51414 -1.2237 -0.897874 -3.01871 -2.45395 -0.0860002 20.2478 12.8753 -1.59028e-015 3.18055e-015 3.18055e-015 -3.75236 -42.5376 -10.8822 -2.91233 27.8904 -7.0626 -1.49284 21.4553 5.51113 -1.95588e-008 -1.64207e-006 -1.94768e-006 -2.53679 -31.5523 -3.13006 0.6986 28.7536 -1.41691 1.18428 18.9425 -1.31732 -0.638773 2.24616 -7.81451 4.35747 16.7988 -16.8366 -5.09061 -10.666 0.550307 2.13393e-008 1.56021e-007 -4.87132e-009 
0.375205 110.009 -0.218958 2.83019 7.507 160.066 -1.64758 4.71151 -10.8497 2.4252 15.6513 -21.6342 2.95626 -9.73359 2.78479 0.0462048 0.000533403 0.662642 -0.432509 -1.51327 -1.22428 -0.897227 -3.01858 -2.45396 -0.0809194 20.2502 12.8571 -7.95139e-016 0 -3.18055e-015 -3.73639 -42.5333 -10.883 -2.91544 27.9254 -7.05928 -1.49807 21.4516 5.53294 -1.95588e-008 -1.64207e-006 -1.94768e-006 -2.54001 -31.5459 -3.11859 0.705585 28.7573 -1.44878 1.17458 18.9568 -1.31998 -0.650683 2.24557 -7.85402 4.35669 16.8081 -16.8306 -5.07195 -10.6655 0.538096 2.13393e-008 1.56021e-007 -4.87131e-009 
0.394474 110.011 -0.213045 2.81471 7.52838 160.118 -1.65162 4.73399 -10.8606 2.42492 15.6483 -21.6548 2.95627 -9.73914 2.76987 0.0462048 0.000533403 0.662642 -0.432102 -1.51219 -1.22501 -0.896958 -3.01709 -2.45729 -0.0845024 20.2513 12.8462 1.59028e-015 -4.77083e-015 3.18055e-015 -3.7224 -42.5168 -10.8768 -2.9128 27.9564 -7.06796 -1.52575 21.4504 5.55459 -1.95588e-008 -1.64207e-006 -1.94768e-006 -2.54955 -31.5443 -3.10262 0.714713 28.7705 -1.47557 1.16142 18.9597 -1.31948 -0.662382 2.25673 -7.88352 4.36557 16.8188 -16.8539 -5.06099 -10.6644 0.546357 2.13393e-008 1.56021e-007 -4.87132e-009 
0.41545 110.013 -0.202917 2.80264 7.55325 160.17 -1.65499 4.76108 -10.8733 2.42467 15.6459 -21.676 2.95888 -9.74287 2.7788 0.0462048 0.000533403 0.662642 -0.431607 -1.51099 -1.22577 -0.896862 -3.01194 -2.463 -0.110609 20.251 12.8487 7.95139e-016 1.59028e-015 3.18055e-015 -3.69358 -42.4995 -10.8368 -2.92693 27.9781 -7.07761 -1.54977 21.4509 5.54847 -1.95588e-008 -1.64207e-006 -1.94768e-006 -2.56489 -31.526 -3.06845 0.72357 28.7861 -1.50271 1.15826 18.9555 -1.31748 -0.673267 2.26789 -7.89303 4.37866 16.8247 -16.8943 -5.05299 -10.662 0.535192 2.13393e-008 1.56021e-007 -4.87132e-009 
0.436473 110.016 -0.192916 2.78781 7.57707 160.224 -1.65401 4.78584 -10.8889 2.42482 15.6435 -21.7017 2.96131 -9.7451 2.77197 0.0462048 0.000533403 0.662642 -0.431114 -1.50975 -1.22656 -0.896947 -3.00617 -2.46988 -0.147976 20.2501 12.8587 7.95139e-016 -1.59028e-015 -0 -3.65911 -42.4879 -10.7903 -2.9465 27.9936 -7.07925 -1.57291 21.4494 5.54523 -1.95588e-008 -1.64207e-006 -1.94768e-006 -2.58261 -31.4774 -3.02968 0.726886 28.7928 -1.52097 1.15987 18.9474 -1.31461 -0.681652 2.28853 -7.90831 4.38929 16.8238 -16.9319 -5.05485 -10.6601 0.526577 2.13393e-008 1.56021e-007 -4.87132e-009 
0.459968 110.019 -0.184029 2.77348 7.60004 160.286 -1.64716 4.81083 -10.9066 2.42391 15.641 -21.7282 2.95919 -9.74703 2.73251 0.0462048 0.000533403 0.662642 -0.430621 -1.50855 -1.22737 -0.896928 -2.99698 -2.47591 -0.181566 20.2505 12.8588 8.82781e-032 -1.59028e-015 3.18055e-015 -3.65712 -42.4715 -10.7738 -2.95148 27.9901 -7.06546 -1.58331 21.4425 5.56345 -1.95588e-008 -1.64207e-006 -1.94768e-006 -2.60831 -31.4169 -3.01006 0.723657 28.7808 -1.5278 1.1481 18.9429 -1.31028 -0.690999 2.30916 -7.93229 4.39685 16.8209 -16.9598 -5.05816 -10.6585 0.512265 2.13393e-008 1.56021e-007 -4.87132e-009 
0.486062 110.022 -0.171027 2.7558 7.61495 160.351 -1.64024 4.82599 -10.9185 2.42169 15.6375 -21.7639 2.96283 -9.74748 2.7315 0.0462048 0.000533403 0.662642 -0.430132 -1.50748 -1.22821 -0.896837 -2.98968 -2.47843 -0.190874 20.2531 12.8422 1.59028e-015 -1.59028e-015 -3.18055e-015 -3.68868 -42.476 -10.8142 -2.95266 28.0077 -7.02772 -1.58175 21.4359 5.59615 -1.95588e-008 -1.64207e-006 -1.94768e-006 -2.63029 -31.3634 -3.01837 0.713155 28.7511 -1.52207 1.1313 18.9445 -1.30455 -0.696312 2.31979 -7.95202 4.40438 16.8163 -16.9872 -5.06004 -10.6569 0.508024 2.13393e-008 1.56021e-007 -4.87132e-009 
